<?xml version="1.0" encoding="utf-8"?>
<!-- Generator: Adobe Illustrator 16.0.4, SVG Export Plug-In . SVG Version: 6.00 Build 0)  -->
<!DOCTYPE svg PUBLIC "-//W3C//DTD SVG 1.1//EN" "http://www.w3.org/Graphics/SVG/1.1/DTD/svg11.dtd">
<svg version="1.1" id="Layer_1" xmlns="http://www.w3.org/2000/svg" xmlns:xlink="http://www.w3.org/1999/xlink" x="0px" y="0px"
	 width="18px" height="18px" viewBox="0 0 18 18" enable-background="new 0 0 18 18" xml:space="preserve">
<path fill-rule="evenodd" clip-rule="evenodd" fill="#231F20" d="M9,0C4.029,0,0,4.029,0,9c0,4.971,4.029,9,9,9c4.971,0,9-4.029,9-9
	C18,4.029,13.971,0,9,0z M9,2c3.003,0,5.558,1.895,6.551,4.552C14.034,6.355,11.017,6,9,6C7.033,6,3.98,6.357,2.448,6.554
	C3.441,3.896,5.996,2,9,2z M9,10.24c-0.569,0-1.031-0.457-1.031-1.02c0-0.563,0.462-1.02,1.031-1.02c0.569,0,1.032,0.456,1.032,1.02
	C10.032,9.783,9.569,10.24,9,10.24z M2,9C2,8.81,2.014,8.624,2.028,8.437c1.457,0.229,5.446,1.419,5.582,7.424
	C4.41,15.215,2,12.39,2,9z M10.391,15.861c0.135-5.987,4.124-7.188,5.581-7.422C15.987,8.625,16,8.81,16,9
	C16,12.39,13.59,15.215,10.391,15.861z"/>
</svg>
