<?xml version="1.0" encoding="utf-8"?>
<!-- Generator: Adobe Illustrator 16.0.4, SVG Export Plug-In . SVG Version: 6.00 Build 0)  -->
<!DOCTYPE svg PUBLIC "-//W3C//DTD SVG 1.1//EN" "http://www.w3.org/Graphics/SVG/1.1/DTD/svg11.dtd">
<svg version="1.1" id="Layer_1" xmlns="http://www.w3.org/2000/svg" xmlns:xlink="http://www.w3.org/1999/xlink" x="0px" y="0px"
	 width="61px" height="37.001px" viewBox="0 0 61 37.001" enable-background="new 0 0 61 37.001" xml:space="preserve">
<g>
	<g>
		<path d="M19.755,5.082c-0.021,0-0.042,0.004-0.062,0.004c-0.663,0.011-1.317,0.191-1.894,0.53
			c-1.872,1.099-2.515,3.542-1.434,5.445c0.686,1.209,1.957,1.966,3.328,1.991c0.022,0,0.045,0.002,0.068,0.002
			c0.685,0,1.361-0.185,1.958-0.535c1.87-1.099,2.514-3.541,1.434-5.445C22.454,5.846,21.152,5.082,19.755,5.082z M20.488,10.353
			c-0.222,0.13-0.473,0.199-0.727,0.199c-0.022,0-0.045-0.003-0.068-0.005c-0.495-0.023-0.95-0.3-1.198-0.737
			c-0.402-0.708-0.163-1.618,0.534-2.027c0.203-0.12,0.432-0.185,0.664-0.195c0.021-0.001,0.042-0.004,0.062-0.004
			c0.521,0,1.006,0.285,1.266,0.742C21.424,9.035,21.184,9.944,20.488,10.353z M10.878,24.483c-0.596-0.351-1.272-0.535-1.958-0.535
			c-1.397,0-2.698,0.764-3.396,1.993c-1.08,1.902-0.436,4.346,1.435,5.445c0.596,0.35,1.271,0.534,1.957,0.534c0,0,0,0,0,0
			c1.396,0,2.698-0.764,3.396-1.993c0.523-0.923,0.662-1.996,0.391-3.025C12.433,25.874,11.785,25.015,10.878,24.483z
			 M10.182,28.675c-0.26,0.458-0.745,0.742-1.266,0.742c0,0,0,0,0,0c-0.253,0-0.504-0.068-0.726-0.197
			c-0.696-0.41-0.936-1.32-0.535-2.028c0.26-0.458,0.745-0.742,1.266-0.742c0.253,0,0.505,0.069,0.727,0.2
			c0.337,0.197,0.579,0.518,0.68,0.9C10.428,27.933,10.377,28.333,10.182,28.675z M30.839,23.968
			c-0.077-0.006-0.154-0.014-0.232-0.016c-0.036-0.002-0.071-0.004-0.106-0.004s-0.071,0.002-0.106,0.004
			c-0.078,0.002-0.155,0.01-0.232,0.016c-0.58,0.047-1.146,0.217-1.653,0.515c-0.907,0.532-1.555,1.391-1.826,2.419
			c-0.271,1.029-0.132,2.103,0.392,3.025c0.698,1.229,2,1.993,3.397,1.993c0.009,0,0.02-0.002,0.029-0.003
			c0.674-0.004,1.34-0.188,1.927-0.531c1.87-1.1,2.514-3.543,1.435-5.445C33.226,24.822,32.091,24.091,30.839,23.968z
			 M31.197,29.219c-0.213,0.125-0.454,0.191-0.697,0.196c-0.01,0.001-0.02,0.002-0.029,0.002c-0.521,0-1.007-0.284-1.267-0.742
			c-0.195-0.343-0.247-0.742-0.146-1.125c0.101-0.383,0.342-0.703,0.679-0.9c0.222-0.131,0.474-0.2,0.728-0.2
			c0.012,0,0.023,0.003,0.035,0.003c0.507,0.012,0.977,0.292,1.231,0.738C32.132,27.9,31.893,28.81,31.197,29.219z M59.802,23.4
			c-1.614-2.844-4.233-3.927-6.839-4.678c-1.471-0.4-2.617-1.254-3.232-2.404c-0.557-1.042-0.631-2.279-0.217-3.576
			c0.793-2.48,1.29-5.191-0.422-8.207C47.504,1.738,44.543,0,41.365,0c-0.019,0-0.038,0.002-0.058,0.002
			C41.288,0.002,41.268,0,41.25,0c-3.179,0-6.14,1.738-7.729,4.535c-1.711,3.015-1.213,5.726-0.421,8.206
			c0.414,1.297,0.34,2.534-0.217,3.576c-0.488,0.915-1.318,1.638-2.385,2.101c-1.06-0.461-1.892-1.185-2.381-2.101
			c-0.557-1.042-0.631-2.279-0.217-3.576c0.792-2.48,1.29-5.191-0.421-8.207C25.891,1.738,22.93,0,19.751,0
			c-0.02,0-0.039,0.002-0.058,0.002C19.673,0.002,19.654,0,19.635,0c-3.178,0-6.139,1.738-7.728,4.535
			c-1.711,3.015-1.214,5.726-0.421,8.206c0.414,1.297,0.339,2.534-0.217,3.576c-0.614,1.15-1.762,2.004-3.249,2.41
			c-2.589,0.746-5.207,1.829-6.822,4.673c-1.19,2.098-1.506,4.541-0.89,6.881c0.616,2.339,2.092,4.295,4.154,5.506
			c1.354,0.795,2.893,1.215,4.45,1.215c3.179,0,6.14-1.737,7.728-4.534c1.637-2.885,1.205-5.842,0.564-8.363
			c-0.668-2.534,0.193-4.464,2.49-5.631c2.297,1.168,3.157,3.098,2.487,5.642c-0.639,2.511-1.071,5.468,0.567,8.353
			c1.587,2.796,4.548,4.534,7.728,4.534h0.051c3.178,0,6.14-1.737,7.728-4.534c1.638-2.885,1.205-5.842,0.563-8.363
			c-0.668-2.534,0.193-4.463,2.49-5.631c2.297,1.168,3.157,3.098,2.487,5.642c-0.639,2.511-1.071,5.467,0.567,8.353
			c1.587,2.796,4.549,4.534,7.727,4.534h0.001c1.556,0,3.095-0.42,4.45-1.215c2.062-1.211,3.536-3.167,4.152-5.506
			C61.309,27.941,60.993,25.498,59.802,23.4z M14.824,24.742c0.738,2.902,0.646,4.779-0.315,6.475
			c-1.15,2.025-3.295,3.283-5.598,3.283c-1.125,0-2.239-0.305-3.22-0.881c-1.493-0.876-2.562-2.292-3.007-3.986
			c-0.446-1.693-0.217-3.463,0.644-4.98c1.115-1.963,2.878-2.801,5.346-3.513c2.128-0.58,3.817-1.869,4.756-3.628
			c0.274-0.513,0.476-1.05,0.606-1.605c0.834,0.629,1.781,1.07,2.833,1.476C14.796,19.169,14.038,21.759,14.824,24.742z
			 M36.124,31.216c-1.15,2.025-3.295,3.283-5.598,3.283h-0.05c0,0,0,0-0.001,0c-2.303,0-4.448-1.258-5.597-3.283
			c-0.582-1.025-0.843-2.118-0.798-3.461c0.001-0.025,0.001-0.051,0.002-0.076c0.036-0.857,0.195-1.817,0.478-2.928
			c0.344-1.307,0.393-2.537,0.167-3.658c-0.292-1.443-1.042-2.705-2.208-3.711c-0.766-0.66-1.711-1.209-2.824-1.629
			c-0.072-0.027-0.144-0.055-0.217-0.082l-0.292-0.103c-2.489-0.881-3.992-1.414-5.016-3.217c-1.779-3.135-0.719-7.158,2.362-8.968
			c0.965-0.566,2.057-0.868,3.162-0.878c0.02,0,0.039-0.002,0.058-0.002c2.303,0,4.447,1.258,5.597,3.283
			c1.02,1.798,1.078,3.474,0.212,6.183c-0.435,1.359-0.503,2.695-0.211,3.938c0.13,0.555,0.332,1.092,0.605,1.605
			c0.393,0.737,0.919,1.389,1.551,1.942c0.831,0.728,1.847,1.282,2.993,1.623c0.065,0.019,0.129,0.04,0.195,0.058
			c2.484,0.717,4.248,1.555,5.362,3.518c0.453,0.798,0.729,1.666,0.825,2.557c0.014,0.154,0.028,0.311,0.036,0.459
			c0,0.034,0.001,0.068,0.002,0.103C36.963,29.107,36.702,30.195,36.124,31.216z M36.273,21.092
			c-0.847-0.712-1.792-1.231-2.78-1.638c0.633-0.554,1.159-1.207,1.553-1.943c0.273-0.513,0.475-1.05,0.605-1.605
			c0.834,0.629,1.78,1.07,2.832,1.476C37.315,18.388,36.565,19.65,36.273,21.092z M58.316,29.632
			c-0.446,1.694-1.515,3.11-3.007,3.986c-0.98,0.576-2.095,0.881-3.22,0.881h-0.001c-2.303,0-4.447-1.258-5.597-3.283
			c-0.962-1.696-1.054-3.572-0.318-6.465c0.788-2.99,0.03-5.582-2.042-7.37c-0.766-0.66-1.711-1.209-2.824-1.629
			c-0.072-0.027-0.144-0.055-0.217-0.082l-0.292-0.103c-2.489-0.881-3.992-1.414-5.016-3.217c-1.779-3.135-0.72-7.158,2.362-8.968
			c0.965-0.566,2.057-0.868,3.162-0.878c0.02,0,0.039-0.002,0.058-0.002c2.304,0,4.448,1.258,5.598,3.283
			c1.021,1.798,1.077,3.474,0.212,6.183c-0.435,1.359-0.502,2.695-0.211,3.938c0.131,0.555,0.332,1.093,0.605,1.605
			c0.939,1.76,2.629,3.048,4.74,3.623c2.484,0.717,4.248,1.555,5.362,3.518C58.534,26.169,58.762,27.939,58.316,29.632z
			 M52.079,23.948c-0.685,0-1.361,0.185-1.957,0.535c-0.906,0.532-1.555,1.391-1.825,2.419c-0.271,1.029-0.132,2.103,0.392,3.025
			c0.698,1.229,2,1.993,3.396,1.993c0.685,0,1.361-0.185,1.957-0.534c1.871-1.1,2.514-3.543,1.434-5.445
			C54.778,24.711,53.476,23.948,52.079,23.948z M52.811,29.219c-0.222,0.13-0.473,0.198-0.727,0.198
			c-0.521,0-1.006-0.284-1.267-0.742c-0.194-0.343-0.246-0.742-0.146-1.125c0.102-0.383,0.342-0.703,0.68-0.9
			c0.223-0.131,0.474-0.2,0.727-0.2c0.521,0,1.006,0.284,1.266,0.741C53.747,27.9,53.507,28.81,52.811,29.219z M43.202,5.616
			c-0.578-0.339-1.231-0.519-1.895-0.53c-0.663,0.011-1.317,0.191-1.895,0.53c-1.871,1.099-2.514,3.542-1.434,5.445
			c0.687,1.209,1.957,1.966,3.328,1.991c1.371-0.024,2.643-0.781,3.328-1.991C45.715,9.158,45.073,6.715,43.202,5.616z
			 M42.102,10.353c-0.223,0.13-0.473,0.199-0.727,0.199c-0.023,0-0.046-0.003-0.068-0.005c-0.022,0.001-0.045,0.005-0.068,0.005
			c-0.254,0-0.504-0.069-0.727-0.199c-0.696-0.409-0.936-1.318-0.533-2.026c0.26-0.458,0.744-0.743,1.266-0.743
			c0.021,0,0.041,0.003,0.062,0.004c0.021-0.001,0.041-0.004,0.062-0.004c0.521,0,1.006,0.285,1.266,0.742
			C43.038,9.035,42.798,9.944,42.102,10.353z"/>
	</g>
</g>
</svg>
