<?xml version="1.0" encoding="utf-8"?>
<!-- Generator: Adobe Illustrator 16.0.0, SVG Export Plug-In . SVG Version: 6.00 Build 0)  -->
<!DOCTYPE svg PUBLIC "-//W3C//DTD SVG 1.1//EN" "http://www.w3.org/Graphics/SVG/1.1/DTD/svg11.dtd">
<svg version="1.1" id="Layer_1" xmlns="http://www.w3.org/2000/svg" xmlns:xlink="http://www.w3.org/1999/xlink" x="0px" y="0px"
	 width="100px" height="100px" viewBox="453.5 -0.5 100 100" enable-background="new 453.5 -0.5 100 100" xml:space="preserve">
<path d="M486.201,26.248c-0.033,0-0.068,0.007-0.1,0.007c-1.067,0.019-2.121,0.308-3.05,0.854c-3.014,1.769-4.049,5.702-2.308,8.765
	c1.104,1.946,3.15,3.167,5.357,3.206c0.035,0,0.072,0.005,0.108,0.005c1.103,0,2.192-0.299,3.152-0.862
	c3.011-1.77,4.047-5.7,2.308-8.767C490.547,27.478,488.451,26.248,486.201,26.248z M487.382,34.735
	c-0.358,0.207-0.761,0.318-1.172,0.318c-0.034,0-0.072-0.004-0.108-0.008c-0.797-0.037-1.529-0.482-1.929-1.186
	c-0.647-1.141-0.263-2.606,0.86-3.264c0.326-0.193,0.694-0.299,1.068-0.314c0.033-0.001,0.066-0.006,0.1-0.006
	c0.838,0,1.619,0.459,2.039,1.194C488.888,32.612,488.501,34.074,487.382,34.735z M471.909,57.481
	c-0.959-0.565-2.048-0.861-3.151-0.861c-2.249,0-4.343,1.229-5.469,3.21c-1.738,3.06-0.701,6.997,2.312,8.764
	c0.959,0.566,2.047,0.861,3.15,0.861l0,0c2.248,0,4.344-1.229,5.468-3.21c0.842-1.484,1.066-3.211,0.629-4.868
	C474.414,59.721,473.37,58.34,471.909,57.481z M470.789,64.229c-0.419,0.739-1.198,1.194-2.038,1.194l0,0
	c-0.407,0-0.812-0.106-1.17-0.317c-1.119-0.657-1.506-2.122-0.86-3.264c0.419-0.735,1.2-1.194,2.038-1.194
	c0.407,0,0.812,0.112,1.171,0.323c0.541,0.317,0.932,0.833,1.095,1.446C471.185,63.038,471.104,63.679,470.789,64.229z
	 M504.045,56.651c-0.124-0.01-0.246-0.022-0.372-0.025c-0.06-0.003-0.115-0.006-0.171-0.006c-0.057,0-0.115,0.003-0.172,0.006
	c-0.126,0.003-0.248,0.016-0.373,0.025c-0.934,0.079-1.844,0.353-2.661,0.83c-1.459,0.858-2.503,2.239-2.94,3.896
	c-0.436,1.657-0.212,3.384,0.632,4.868c1.123,1.98,3.22,3.21,5.469,3.21c0.016,0,0.032-0.003,0.047-0.006
	c1.085-0.007,2.157-0.302,3.104-0.855c3.009-1.771,4.047-5.704,2.31-8.764C507.89,58.028,506.061,56.85,504.045,56.651z
	 M504.622,65.106c-0.343,0.201-0.73,0.309-1.122,0.314c-0.016,0.003-0.031,0.003-0.047,0.003c-0.839,0-1.621-0.455-2.039-1.194
	c-0.314-0.551-0.398-1.191-0.234-1.812c0.161-0.616,0.55-1.129,1.091-1.446c0.358-0.211,0.764-0.323,1.173-0.323
	c0.019,0,0.037,0.006,0.057,0.006c0.815,0.019,1.572,0.469,1.98,1.188C506.127,62.984,505.742,64.449,504.622,65.106z
	 M550.674,55.739c-2.599-4.578-6.815-6.323-11.01-7.53c-2.368-0.645-4.214-2.021-5.204-3.871c-0.896-1.679-1.017-3.67-0.35-5.758
	c1.276-3.993,2.079-8.357-0.679-13.212c-2.557-4.503-7.323-7.302-12.439-7.302c-0.031,0-0.062,0.003-0.095,0.003
	c-0.029,0-0.062-0.003-0.091-0.003c-5.119,0-9.886,2.799-12.442,7.302c-2.755,4.853-1.953,9.218-0.679,13.211
	c0.666,2.088,0.547,4.08-0.35,5.756c-0.786,1.475-2.123,2.638-3.84,3.383c-1.707-0.741-3.047-1.908-3.832-3.383
	c-0.896-1.676-1.016-3.668-0.35-5.756c1.273-3.993,2.075-8.358-0.679-13.213c-2.557-4.501-7.323-7.3-12.441-7.3
	c-0.032,0-0.062,0.003-0.093,0.003c-0.033,0-0.062-0.003-0.094-0.003c-5.116,0-9.883,2.799-12.441,7.302
	c-2.756,4.853-1.954,9.218-0.678,13.211c0.667,2.088,0.546,4.08-0.349,5.756c-0.989,1.852-2.838,3.226-5.232,3.88
	c-4.166,1.201-8.383,2.946-10.981,7.524c-1.917,3.377-2.426,7.311-1.433,11.078c0.99,3.764,3.368,6.914,6.687,8.864
	c2.181,1.279,4.658,1.955,7.164,1.955c5.118,0,9.885-2.795,12.443-7.301c2.635-4.645,1.938-9.405,0.906-13.461
	c-1.075-4.082,0.311-7.188,4.008-9.065c3.699,1.88,5.085,4.986,4.006,9.081c-1.029,4.043-1.727,8.804,0.912,13.448
	c2.555,4.503,7.322,7.298,12.442,7.298h0.082c5.116,0,9.884-2.795,12.44-7.298c2.637-4.645,1.94-9.405,0.907-13.464
	c-1.075-4.079,0.31-7.186,4.009-9.065c3.698,1.88,5.082,4.986,4.004,9.084c-1.029,4.04-1.724,8.801,0.911,13.445
	c2.557,4.503,7.325,7.302,12.44,7.302h0.002c2.506,0,4.984-0.677,7.165-1.956c3.318-1.949,5.692-5.101,6.683-8.864
	C553.1,63.05,552.592,59.116,550.674,55.739z M478.263,57.899c1.188,4.673,1.039,7.694-0.508,10.424
	c-1.851,3.261-5.305,5.286-9.012,5.286c-1.812,0-3.605-0.49-5.184-1.418c-2.404-1.412-4.126-3.691-4.843-6.418
	s-0.349-5.575,1.038-8.019c1.796-3.16,4.634-4.509,8.606-5.653c3.426-0.934,6.146-3.01,7.656-5.843
	c0.441-0.825,0.768-1.689,0.977-2.583c1.343,1.013,2.866,1.722,4.561,2.376C478.217,48.926,476.997,53.095,478.263,57.899z
	 M512.555,68.32c-1.852,3.261-5.305,5.286-9.014,5.286h-0.079c0,0,0,0-0.003,0c-3.707,0-7.16-2.025-9.011-5.286
	c-0.937-1.647-1.356-3.408-1.284-5.572c0.002-0.037,0.002-0.081,0.003-0.119c0.059-1.381,0.314-2.928,0.771-4.717
	c0.554-2.104,0.632-4.084,0.268-5.89c-0.469-2.32-1.676-4.352-3.554-5.973c-1.233-1.061-2.754-1.946-4.546-2.622
	c-0.117-0.043-0.233-0.088-0.35-0.132l-0.472-0.165c-4.006-1.419-6.427-2.277-8.075-5.18c-2.864-5.048-1.156-11.523,3.804-14.438
	c1.554-0.912,3.312-1.396,5.089-1.414c0.033,0,0.062-0.003,0.095-0.003c3.707,0,7.159,2.025,9.012,5.286
	c1.642,2.895,1.734,5.592,0.34,9.953c-0.7,2.188-0.809,4.34-0.34,6.341c0.211,0.894,0.534,1.758,0.975,2.583
	c0.632,1.188,1.479,2.236,2.497,3.126c1.338,1.173,2.975,2.065,4.818,2.613c0.105,0.031,0.208,0.065,0.312,0.094
	c4,1.154,6.84,2.503,8.635,5.663c0.729,1.286,1.173,2.683,1.327,4.116c0.022,0.248,0.046,0.503,0.059,0.739
	c0,0.057,0.001,0.109,0.003,0.166C513.904,64.928,513.484,66.679,512.555,68.32z M512.795,52.022
	c-1.365-1.147-2.887-1.98-4.477-2.638c1.02-0.89,1.866-1.941,2.5-3.127c0.438-0.825,0.766-1.69,0.973-2.583
	c1.344,1.012,2.868,1.723,4.561,2.375C514.471,47.671,513.264,49.702,512.795,52.022z M548.282,65.771
	c-0.718,2.729-2.44,5.009-4.843,6.417c-1.576,0.928-3.372,1.419-5.184,1.419h-0.001c-3.707,0-7.16-2.025-9.011-5.286
	c-1.548-2.729-1.696-5.748-0.512-10.408c1.269-4.813,0.049-8.986-3.288-11.863c-1.232-1.063-2.754-1.946-4.547-2.623
	c-0.116-0.044-0.23-0.088-0.349-0.132l-0.471-0.167c-4.007-1.418-6.425-2.276-8.074-5.179c-2.865-5.047-1.158-11.524,3.803-14.438
	c1.554-0.91,3.312-1.397,5.091-1.413c0.032,0,0.062-0.003,0.093-0.003c3.709,0,7.162,2.024,9.012,5.285
	c1.644,2.895,1.734,5.593,0.342,9.954c-0.699,2.188-0.809,4.339-0.34,6.341c0.211,0.893,0.535,1.759,0.975,2.583
	c1.512,2.834,4.232,4.906,7.632,5.831c3.998,1.157,6.839,2.506,8.632,5.666C548.633,60.195,548.999,63.047,548.282,65.771z
	 M538.24,56.62c-1.102,0-2.191,0.299-3.15,0.861c-1.459,0.858-2.504,2.239-2.938,3.896c-0.437,1.657-0.212,3.384,0.632,4.868
	c1.123,1.98,3.221,3.21,5.467,3.21c1.103,0,2.19-0.299,3.15-0.861c3.013-1.771,4.049-5.704,2.311-8.764
	C542.585,57.85,540.49,56.62,538.24,56.62z M539.418,65.106c-0.356,0.211-0.761,0.317-1.17,0.317c-0.839,0-1.619-0.455-2.04-1.194
	c-0.312-0.551-0.396-1.191-0.234-1.812c0.165-0.616,0.552-1.129,1.096-1.446c0.358-0.211,0.763-0.323,1.17-0.323
	c0.839,0,1.619,0.459,2.038,1.194C540.926,62.984,540.539,64.449,539.418,65.106z M523.949,27.108
	c-0.931-0.546-1.982-0.835-3.052-0.854c-1.065,0.019-2.119,0.308-3.05,0.854c-3.012,1.769-4.047,5.702-2.308,8.765
	c1.104,1.946,3.15,3.167,5.357,3.206c2.206-0.039,4.255-1.257,5.356-3.206C527.994,32.811,526.962,28.877,523.949,27.108z
	 M522.178,34.735c-0.358,0.207-0.762,0.318-1.17,0.318c-0.037,0-0.074-0.004-0.11-0.008c-0.034,0.002-0.072,0.008-0.108,0.008
	c-0.41,0-0.812-0.111-1.171-0.318c-1.12-0.661-1.507-2.123-0.858-3.263c0.42-0.737,1.197-1.196,2.039-1.196
	c0.033,0,0.066,0.005,0.099,0.006c0.035-0.001,0.066-0.006,0.101-0.006c0.84,0,1.619,0.459,2.038,1.194
	C523.686,32.612,523.299,34.074,522.178,34.735z"/>
</svg>
