<?xml version="1.0" encoding="utf-8"?>
<!-- Generator: Adobe Illustrator 16.0.0, SVG Export Plug-In . SVG Version: 6.00 Build 0)  -->
<!DOCTYPE svg PUBLIC "-//W3C//DTD SVG 1.1//EN" "http://www.w3.org/Graphics/SVG/1.1/DTD/svg11.dtd">
<svg version="1.1" id="Layer_1" xmlns="http://www.w3.org/2000/svg" xmlns:xlink="http://www.w3.org/1999/xlink" x="0px" y="0px"
	 width="100px" height="100px" viewBox="14.5 -0.5 100 100" enable-background="new 14.5 -0.5 100 100" xml:space="preserve">
<path d="M35.924,36.212h57.152c2.628,0,4.763-2.134,4.763-4.762c0-2.629-2.135-4.763-4.763-4.763H35.924
	c-2.628,0-4.763,2.134-4.763,4.763C31.161,34.078,33.296,36.212,35.924,36.212z M93.076,45.738H35.924
	c-2.628,0-4.763,2.134-4.763,4.763c0,2.627,2.135,4.762,4.763,4.762h57.152c2.628,0,4.763-2.135,4.763-4.762
	C97.839,47.872,95.704,45.738,93.076,45.738z M93.076,64.789H35.924c-2.628,0-4.763,2.135-4.763,4.762
	c0,2.628,2.135,4.763,4.763,4.763h57.152c2.628,0,4.763-2.135,4.763-4.763C97.839,66.924,95.704,64.789,93.076,64.789z"/>
</svg>
