<?xml version="1.0" encoding="utf-8"?>
<!-- Generator: Adobe Illustrator 16.0.0, SVG Export Plug-In . SVG Version: 6.00 Build 0)  -->
<!DOCTYPE svg PUBLIC "-//W3C//DTD SVG 1.1//EN" "http://www.w3.org/Graphics/SVG/1.1/DTD/svg11.dtd">
<svg version="1.1" id="Layer_1" xmlns="http://www.w3.org/2000/svg" xmlns:xlink="http://www.w3.org/1999/xlink" x="0px" y="0px"
	 width="100px" height="100px" viewBox="14.5 -0.5 100 100" enable-background="new 14.5 -0.5 100 100" xml:space="preserve">
<path d="M29.357,32.929h70.285c3.232,0,5.857-2.624,5.857-5.856c0-3.233-2.625-5.857-5.857-5.857H29.357
	c-3.232,0-5.857,2.624-5.857,5.857C23.5,30.305,26.125,32.929,29.357,32.929z M99.643,44.644H29.357
	c-3.232,0-5.857,2.624-5.857,5.857c0,3.231,2.625,5.856,5.857,5.856h70.285c3.232,0,5.857-2.625,5.857-5.856
	C105.5,47.268,102.875,44.644,99.643,44.644z M99.643,68.072H29.357c-3.232,0-5.857,2.625-5.857,5.856
	c0,3.232,2.625,5.857,5.857,5.857h70.285c3.232,0,5.857-2.625,5.857-5.857C105.5,70.697,102.875,68.072,99.643,68.072z"/>
</svg>
