<?xml version="1.0" encoding="utf-8"?>
<!-- Generator: Adobe Illustrator 16.0.0, SVG Export Plug-In . SVG Version: 6.00 Build 0)  -->
<!DOCTYPE svg PUBLIC "-//W3C//DTD SVG 1.1//EN" "http://www.w3.org/Graphics/SVG/1.1/DTD/svg11.dtd">
<svg version="1.1" id="Layer_1" xmlns="http://www.w3.org/2000/svg" xmlns:xlink="http://www.w3.org/1999/xlink" x="0px" y="0px"
	 width="100px" height="100px" viewBox="593.5 -0.5 100 100" enable-background="new 593.5 -0.5 100 100" xml:space="preserve">
<g>
	<path fill-rule="evenodd" clip-rule="evenodd" d="M683.1,84.451l-5.555,5.555l-16.85-16.855
		c-12.846,10.094-31.486,9.244-43.317-2.593c-12.777-12.783-12.777-33.496,0-46.274c12.778-12.776,33.49-12.776,46.273,0
		c11.837,11.838,12.687,30.474,2.593,43.318L683.1,84.451z M658.144,29.848c-9.711-9.71-25.458-9.7-35.181,0.022
		c-9.722,9.721-9.731,25.47-0.021,35.18c9.669,9.671,25.339,9.686,35.066,0.069l0.205-0.205
		C667.828,55.182,667.813,39.519,658.144,29.848z"/>
</g>
</svg>
