<?xml version="1.0" encoding="utf-8"?>
<!-- Generator: Adobe Illustrator 16.0.0, SVG Export Plug-In . SVG Version: 6.00 Build 0)  -->
<!DOCTYPE svg PUBLIC "-//W3C//DTD SVG 1.1//EN" "http://www.w3.org/Graphics/SVG/1.1/DTD/svg11.dtd">
<svg version="1.1" id="Layer_1" xmlns="http://www.w3.org/2000/svg" xmlns:xlink="http://www.w3.org/1999/xlink" x="0px" y="0px"
	 width="100px" height="100px" viewBox="163.5 -0.5 100 100" enable-background="new 163.5 -0.5 100 100" xml:space="preserve">
<path fill="#0E171D" d="M213.501,7.737c-23.066,0-41.763,18.697-41.763,41.763s18.696,41.762,41.763,41.762
	c23.064,0,41.761-18.696,41.761-41.762S236.565,7.737,213.501,7.737z M213.501,84.852c-19.521,0-35.344-15.828-35.344-35.352
	s15.823-35.351,35.344-35.351c19.519,0,35.344,15.827,35.344,35.351S233.02,84.852,213.501,84.852z M236.038,46.32h-19.333V27.017
	c0-1.775-1.438-3.213-3.211-3.213s-3.214,1.438-3.214,3.213v22.49c0,1.776,1.44,3.214,3.214,3.214h22.545
	c1.743,0,3.157-1.434,3.157-3.2C239.196,47.753,237.782,46.32,236.038,46.32z"/>
</svg>
